<svg xmlns="http://www.w3.org/2000/svg" viewBox="0 0 512 512" role="img" aria-label="Distribuição androide de gordura corporal">
  <g>
    <ellipse cx="256" cy="164" rx="118" ry="76" fill="hsl(31 94% 56%)" fill-opacity="0.42" />
    <ellipse cx="256" cy="242" rx="106" ry="92" fill="hsl(31 94% 56%)" fill-opacity="0.48" />
    <ellipse cx="214" cy="244" rx="42" ry="74" fill="hsl(31 94% 56%)" fill-opacity="0.32" />
    <ellipse cx="298" cy="244" rx="42" ry="74" fill="hsl(31 94% 56%)" fill-opacity="0.32" />
    <ellipse cx="256" cy="322" rx="74" ry="64" fill="hsl(31 94% 56%)" fill-opacity="0.34" />
  </g>

  <g fill="none" stroke="hsl(220 12% 42%)" stroke-width="3" stroke-linecap="round" stroke-linejoin="round">
    <ellipse cx="256" cy="58" rx="28" ry="34" />
    <path d="M242 88 L237 104" />
    <path d="M270 88 L275 104" />

    <path d="M232 105 C205 112 181 131 168 158 C155 184 151 214 152 245 C153 273 160 301 167 328 C172 347 175 367 178 389 C181 420 183 449 187 476" />
    <path d="M280 105 C307 112 331 131 344 158 C357 184 361 214 360 245 C359 273 352 301 345 328 C340 347 337 367 334 389 C331 420 329 449 325 476" />

    <path d="M168 160 C153 184 144 214 141 245 C139 279 143 311 151 342 C154 356 159 367 166 376" />
    <path d="M344 160 C359 184 368 214 371 245 C373 279 369 311 361 342 C358 356 353 367 346 376" />

    <path d="M224 151 C231 165 243 173 256 173 C269 173 281 165 288 151" />
    <path d="M222 208 C230 204 239 202 248 203" />
    <path d="M290 208 C282 204 273 202 264 203" />
    <path d="M232 257 C245 268 267 268 280 257" />

    <path d="M226 174 C215 199 208 228 206 259 C204 287 207 317 214 348 C219 372 225 398 228 426 C230 445 230 462 228 479" />
    <path d="M286 174 C297 199 304 228 306 259 C308 287 305 317 298 348 C293 372 287 398 284 426 C282 445 282 462 284 479" />

    <path d="M214 347 C206 376 199 408 195 440 C193 457 192 470 192 482" />
    <path d="M298 347 C306 376 313 408 317 440 C319 457 320 470 320 482" />
    <path d="M228 479 C231 487 238 492 246 492" />
    <path d="M284 479 C281 487 274 492 266 492" />
    <path d="M192 482 C196 489 202 492 209 492" />
    <path d="M320 482 C316 489 310 492 303 492" />
  </g>
</svg>
