<svg xmlns="http://www.w3.org/2000/svg" viewBox="0 0 512 512" role="img" aria-label="Distribuição ginoide de gordura corporal">
  <g>
    <ellipse cx="256" cy="214" rx="72" ry="46" fill="hsl(136 48% 61%)" fill-opacity="0.38" />
    <ellipse cx="194" cy="292" rx="86" ry="116" fill="hsl(136 48% 61%)" fill-opacity="0.46" />
    <ellipse cx="318" cy="292" rx="86" ry="116" fill="hsl(136 48% 61%)" fill-opacity="0.46" />
    <ellipse cx="256" cy="346" rx="60" ry="96" fill="hsl(136 48% 61%)" fill-opacity="0.42" />
  </g>

  <g fill="none" stroke="hsl(220 12% 42%)" stroke-width="3" stroke-linecap="round" stroke-linejoin="round">
    <ellipse cx="256" cy="58" rx="28" ry="34" />
    <path d="M242 88 L237 104" />
    <path d="M270 88 L275 104" />

    <path d="M232 105 C204 112 179 131 165 158 C152 184 148 214 149 246 C150 274 157 302 164 329 C170 350 173 371 176 394 C179 423 181 450 185 476" />
    <path d="M280 105 C308 112 333 131 347 158 C360 184 364 214 363 246 C362 274 355 302 348 329 C342 350 339 371 336 394 C333 423 331 450 327 476" />

    <path d="M165 160 C150 184 141 214 138 246 C136 279 140 312 148 344 C151 357 156 368 163 377" />
    <path d="M347 160 C362 184 371 214 374 246 C376 279 372 312 364 344 C361 357 356 368 349 377" />

    <path d="M224 151 C231 165 243 173 256 173 C269 173 281 165 288 151" />
    <path d="M222 208 C230 204 239 202 248 203" />
    <path d="M290 208 C282 204 273 202 264 203" />
    <path d="M232 257 C245 268 267 268 280 257" />

    <path d="M226 174 C214 198 207 226 206 256 C205 284 209 313 217 342 C222 365 228 392 231 421 C233 441 233 460 231 479" />
    <path d="M286 174 C298 198 305 226 306 256 C307 284 303 313 295 342 C290 365 284 392 281 421 C279 441 279 460 281 479" />

    <path d="M217 342 C208 373 201 406 197 439 C195 456 194 469 194 482" />
    <path d="M295 342 C304 373 311 406 315 439 C317 456 318 469 318 482" />
    <path d="M231 479 C234 487 241 492 249 492" />
    <path d="M281 479 C278 487 271 492 263 492" />
    <path d="M194 482 C198 489 204 492 211 492" />
    <path d="M318 482 C314 489 308 492 301 492" />
  </g>
</svg>
